<svg width="37" height="15" viewBox="0 0 37 15" fill="none" xmlns="http://www.w3.org/2000/svg">
<path d="M4.43848 14.1758C3.31934 14.1758 2.44336 13.8096 1.81055 13.0771C1.17773 12.3447 0.855469 11.3018 0.84375 9.94824V8.78809C0.84375 7.39355 1.14844 6.30078 1.75781 5.50977C2.36719 4.71289 3.20508 4.31445 4.27148 4.31445C5.30273 4.31445 6.08789 4.65137 6.62695 5.3252C7.17188 5.99902 7.4502 7.03027 7.46191 8.41895V9.33301H1.81055V9.86914C1.81055 10.959 2.04199 11.7998 2.50488 12.3916C2.97363 12.9834 3.63281 13.2793 4.48242 13.2793C5.41992 13.2793 6.17871 12.9365 6.75879 12.251L7.26855 12.9014C6.64746 13.751 5.7041 14.1758 4.43848 14.1758ZM4.27148 5.22852C3.50391 5.22852 2.91211 5.50098 2.49609 6.0459C2.08594 6.58496 1.86035 7.37598 1.81934 8.41895H6.48633V8.16406C6.43945 6.20703 5.70117 5.22852 4.27148 5.22852ZM10.4414 4.49023L10.4678 5.91406C11.0596 4.84766 11.9092 4.31445 13.0166 4.31445C14.2412 4.31445 15.0322 4.89746 15.3896 6.06348C15.6885 5.4834 16.0723 5.04688 16.541 4.75391C17.0156 4.46094 17.5312 4.31445 18.0879 4.31445C19.7988 4.31445 20.6748 5.41602 20.7158 7.61914V14H19.7402V7.68066C19.7285 6.86035 19.5762 6.25098 19.2832 5.85254C18.9902 5.44824 18.5098 5.24609 17.8418 5.24609C17.2383 5.25781 16.7285 5.49219 16.3125 5.94922C15.8965 6.40625 15.6592 6.98047 15.6006 7.67188V14H14.6162V7.70703C14.6162 6.875 14.4609 6.25684 14.1504 5.85254C13.8457 5.44824 13.3682 5.24609 12.7178 5.24609C12.1846 5.24609 11.7217 5.43066 11.3291 5.7998C10.9424 6.16895 10.6611 6.69629 10.4854 7.38184V14H9.50977V4.49023H10.4414ZM28.3008 14C28.2129 13.6953 28.1543 13.2559 28.125 12.6816C27.832 13.1562 27.4541 13.5254 26.9912 13.7891C26.5342 14.0469 26.0361 14.1758 25.4971 14.1758C24.6768 14.1758 24.0381 13.9443 23.5811 13.4814C23.124 13.0186 22.8955 12.3594 22.8955 11.5039C22.8955 10.5723 23.2119 9.83398 23.8447 9.28906C24.4834 8.74414 25.3623 8.46875 26.4814 8.46289H28.1162V7.13574C28.1162 6.45605 27.9463 5.96973 27.6064 5.67676C27.2725 5.37793 26.7803 5.22852 26.1299 5.22852C25.5264 5.22852 25.0312 5.4043 24.6445 5.75586C24.2578 6.10742 24.0645 6.56152 24.0645 7.11816L23.0889 7.10938C23.0889 6.33008 23.3818 5.6709 23.9678 5.13184C24.5537 4.58691 25.2891 4.31445 26.1738 4.31445C27.1289 4.31445 27.8525 4.55469 28.3447 5.03516C28.8369 5.51562 29.083 6.21582 29.083 7.13574V11.8027C29.083 12.7344 29.168 13.4316 29.3379 13.8945V14H28.3008ZM25.6201 13.2354C26.1943 13.2354 26.7012 13.0859 27.1406 12.7871C27.5859 12.4883 27.9111 12.0898 28.1162 11.5918V9.28027H26.5693C25.6787 9.29199 25.0078 9.49121 24.5566 9.87793C24.1055 10.2588 23.8799 10.7744 23.8799 11.4248C23.8799 12.6318 24.46 13.2354 25.6201 13.2354ZM32.8359 14H31.8516V4.49023H32.8359V14ZM31.7109 1.74805C31.7109 1.54883 31.7666 1.37891 31.8779 1.23828C31.9893 1.09766 32.1475 1.02734 32.3525 1.02734C32.5576 1.02734 32.7158 1.09766 32.8271 1.23828C32.9443 1.37891 33.0029 1.54883 33.0029 1.74805C33.0029 1.94727 32.9443 2.11719 32.8271 2.25781C32.7158 2.39258 32.5576 2.45996 32.3525 2.45996C32.1475 2.45996 31.9893 2.39258 31.8779 2.25781C31.7666 2.11719 31.7109 1.94727 31.7109 1.74805ZM36.6328 14H35.6484V0.5H36.6328V14Z" fill="black"/>
</svg>
