<svg width="37" height="17" viewBox="0 0 37 17" fill="none" xmlns="http://www.w3.org/2000/svg">
<path d="M1.52246 12.0684H6.7959V13H0.511719V0.203125H1.52246V12.0684ZM8.28125 7.76172C8.28125 6.39062 8.5918 5.30664 9.21289 4.50977C9.83398 3.71289 10.6807 3.31445 11.7529 3.31445C12.8311 3.31445 13.6777 3.70703 14.293 4.49219C14.9141 5.27734 15.2275 6.3584 15.2334 7.73535V8.74609C15.2334 10.1406 14.9199 11.2275 14.293 12.0068C13.6719 12.7861 12.8311 13.1758 11.7705 13.1758C10.71 13.1758 9.86914 12.7949 9.24805 12.0332C8.62695 11.2715 8.30469 10.2227 8.28125 8.88672V7.76172ZM9.26562 8.74609C9.26562 9.8418 9.48535 10.7031 9.9248 11.3301C10.3701 11.957 10.9854 12.2705 11.7705 12.2705C12.5732 12.2705 13.1855 11.9688 13.6074 11.3652C14.0352 10.7617 14.252 9.89746 14.2578 8.77246V7.76172C14.2578 6.66602 14.0352 5.80469 13.5898 5.17773C13.1445 4.54492 12.5322 4.22852 11.7529 4.22852C10.9971 4.22852 10.3965 4.53613 9.95117 5.15137C9.50586 5.7666 9.27734 6.61328 9.26562 7.69141V8.74609ZM17.1494 7.80566C17.1494 6.30566 17.4072 5.18359 17.9229 4.43945C18.4385 3.68945 19.2119 3.31445 20.2432 3.31445C21.3389 3.31445 22.1533 3.81543 22.6865 4.81738L22.7393 3.49023H23.6445V13.2725C23.6387 14.4209 23.3633 15.2939 22.8184 15.8916C22.2793 16.4893 21.4912 16.7881 20.4541 16.7881C19.9326 16.7881 19.4053 16.6592 18.8721 16.4014C18.3447 16.1494 17.9434 15.8389 17.668 15.4697L18.125 14.7666C18.7754 15.5107 19.5283 15.8828 20.3838 15.8828C21.1748 15.8828 21.749 15.6719 22.1064 15.25C22.4697 14.8281 22.6543 14.1865 22.6602 13.3252V11.8135C22.127 12.7217 21.3184 13.1758 20.2344 13.1758C19.2441 13.1758 18.4854 12.8037 17.958 12.0596C17.4365 11.3154 17.167 10.2402 17.1494 8.83398V7.80566ZM18.1338 8.69336C18.1338 9.91211 18.3184 10.8086 18.6875 11.3828C19.0566 11.957 19.6367 12.2441 20.4277 12.2441C21.4824 12.2441 22.2266 11.7432 22.6602 10.7412V5.88086C22.2207 4.79688 21.4824 4.25488 20.4453 4.25488C19.6484 4.25488 19.0654 4.53906 18.6963 5.10742C18.3271 5.67578 18.1396 6.55469 18.1338 7.74414V8.69336ZM27.3359 13H26.3516V3.49023H27.3359V13ZM26.2109 0.748047C26.2109 0.548828 26.2666 0.378906 26.3779 0.238281C26.4893 0.0976562 26.6475 0.0273438 26.8525 0.0273438C27.0576 0.0273438 27.2158 0.0976562 27.3271 0.238281C27.4443 0.378906 27.5029 0.548828 27.5029 0.748047C27.5029 0.947266 27.4443 1.11719 27.3271 1.25781C27.2158 1.39258 27.0576 1.45996 26.8525 1.45996C26.6475 1.45996 26.4893 1.39258 26.3779 1.25781C26.2666 1.11719 26.2109 0.947266 26.2109 0.748047ZM30.9746 3.49023L31.001 5.00195C31.2822 4.48633 31.6396 4.07617 32.0732 3.77148C32.5127 3.4668 33.0107 3.31445 33.5674 3.31445C35.2256 3.31445 36.0752 4.41895 36.1162 6.62793V13H35.1494V6.7334C35.1436 5.88379 34.9941 5.25684 34.7012 4.85254C34.4082 4.44824 33.9482 4.24609 33.3213 4.24609C32.8115 4.24609 32.3516 4.43945 31.9414 4.82617C31.5371 5.20703 31.2295 5.73145 31.0186 6.39941V13H30.043V3.49023H30.9746Z" fill="black"/>
</svg>
