<svg width="41" height="15" viewBox="0 0 41 15" fill="none" xmlns="http://www.w3.org/2000/svg">
<path d="M6.05566 11.6621C6.05566 11.252 5.88574 10.8945 5.5459 10.5898C5.20605 10.2793 4.62891 9.94238 3.81445 9.5791C3.00586 9.20996 2.44043 8.90527 2.11816 8.66504C1.7959 8.41895 1.55859 8.15234 1.40625 7.86523C1.25391 7.57812 1.17773 7.23828 1.17773 6.8457C1.17773 6.11328 1.44141 5.50977 1.96875 5.03516C2.49609 4.55469 3.17871 4.31445 4.0166 4.31445C4.91895 4.31445 5.63965 4.56934 6.17871 5.0791C6.71777 5.58887 6.9873 6.2627 6.9873 7.10059H6.01172C6.01172 6.56152 5.82715 6.11621 5.45801 5.76465C5.08887 5.40723 4.6084 5.22852 4.0166 5.22852C3.44238 5.22852 2.98535 5.375 2.64551 5.66797C2.31152 5.96094 2.14453 6.3418 2.14453 6.81055C2.14453 7.19141 2.27344 7.50195 2.53125 7.74219C2.78906 7.98242 3.3457 8.30762 4.20117 8.71777C5.08594 9.10449 5.69531 9.42383 6.0293 9.67578C6.36328 9.92773 6.61523 10.209 6.78516 10.5195C6.95508 10.8242 7.04004 11.1875 7.04004 11.6094C7.04004 12.3945 6.76758 13.0186 6.22266 13.4814C5.67773 13.9443 4.95996 14.1758 4.06934 14.1758C3.12598 14.1758 2.36133 13.918 1.77539 13.4023C1.19531 12.8867 0.905273 12.2217 0.905273 11.4072H1.88965C1.91895 11.999 2.11523 12.459 2.47852 12.7871C2.84766 13.1094 3.37793 13.2705 4.06934 13.2705C4.66699 13.2705 5.14746 13.124 5.51074 12.8311C5.87402 12.5381 6.05566 12.1484 6.05566 11.6621ZM12.4717 14.1758C11.3525 14.1758 10.4766 13.8096 9.84375 13.0771C9.21094 12.3447 8.88867 11.3018 8.87695 9.94824V8.78809C8.87695 7.39355 9.18164 6.30078 9.79102 5.50977C10.4004 4.71289 11.2383 4.31445 12.3047 4.31445C13.3359 4.31445 14.1211 4.65137 14.6602 5.3252C15.2051 5.99902 15.4834 7.03027 15.4951 8.41895V9.33301H9.84375V9.86914C9.84375 10.959 10.0752 11.7998 10.5381 12.3916C11.0068 12.9834 11.666 13.2793 12.5156 13.2793C13.4531 13.2793 14.2119 12.9365 14.792 12.251L15.3018 12.9014C14.6807 13.751 13.7373 14.1758 12.4717 14.1758ZM12.3047 5.22852C11.5371 5.22852 10.9453 5.50098 10.5293 6.0459C10.1191 6.58496 9.89355 7.37598 9.85254 8.41895H14.5195V8.16406C14.4727 6.20703 13.7344 5.22852 12.3047 5.22852ZM18.5098 4.49023L18.5361 6.00195C18.8174 5.48633 19.1748 5.07617 19.6084 4.77148C20.0479 4.4668 20.5459 4.31445 21.1025 4.31445C22.7607 4.31445 23.6104 5.41895 23.6514 7.62793V14H22.6846V7.7334C22.6787 6.88379 22.5293 6.25684 22.2363 5.85254C21.9434 5.44824 21.4834 5.24609 20.8564 5.24609C20.3467 5.24609 19.8867 5.43945 19.4766 5.82617C19.0723 6.20703 18.7646 6.73145 18.5537 7.39941V14H17.5781V4.49023H18.5098ZM27.2197 5.98438C27.501 5.47461 27.8555 5.07031 28.2832 4.77148C28.7168 4.4668 29.2119 4.31445 29.7686 4.31445C31.4268 4.31445 32.2764 5.41895 32.3174 7.62793V14H31.3506V7.7334C31.3447 6.88379 31.1953 6.25684 30.9023 5.85254C30.6094 5.44824 30.1494 5.24609 29.5225 5.24609C29.0127 5.24609 28.5527 5.43945 28.1426 5.82617C27.7383 6.20703 27.4307 6.73145 27.2197 7.39941V14H26.2441V0.5H27.2197V5.98438ZM39.9375 14C39.8496 13.6953 39.791 13.2559 39.7617 12.6816C39.4688 13.1562 39.0908 13.5254 38.6279 13.7891C38.1709 14.0469 37.6729 14.1758 37.1338 14.1758C36.3135 14.1758 35.6748 13.9443 35.2178 13.4814C34.7607 13.0186 34.5322 12.3594 34.5322 11.5039C34.5322 10.5723 34.8486 9.83398 35.4814 9.28906C36.1201 8.74414 36.999 8.46875 38.1182 8.46289H39.7529V7.13574C39.7529 6.45605 39.583 5.96973 39.2432 5.67676C38.9092 5.37793 38.417 5.22852 37.7666 5.22852C37.1631 5.22852 36.668 5.4043 36.2812 5.75586C35.8945 6.10742 35.7012 6.56152 35.7012 7.11816L34.7256 7.10938C34.7256 6.33008 35.0186 5.6709 35.6045 5.13184C36.1904 4.58691 36.9258 4.31445 37.8105 4.31445C38.7656 4.31445 39.4893 4.55469 39.9814 5.03516C40.4736 5.51562 40.7197 6.21582 40.7197 7.13574V11.8027C40.7197 12.7344 40.8047 13.4316 40.9746 13.8945V14H39.9375ZM37.2568 13.2354C37.8311 13.2354 38.3379 13.0859 38.7773 12.7871C39.2227 12.4883 39.5479 12.0898 39.7529 11.5918V9.28027H38.2061C37.3154 9.29199 36.6445 9.49121 36.1934 9.87793C35.7422 10.2588 35.5166 10.7744 35.5166 11.4248C35.5166 12.6318 36.0967 13.2354 37.2568 13.2354Z" fill="black"/>
</svg>
