<svg width="35" height="13" viewBox="0 0 35 13" fill="none" xmlns="http://www.w3.org/2000/svg">
<path d="M2.76855 0.0644531V2.49023H4.39453V3.36914H2.76855V9.68848C2.76855 10.21 2.84473 10.5996 2.99707 10.8574C3.15527 11.1094 3.41602 11.2354 3.7793 11.2354C3.9375 11.2354 4.17188 11.2061 4.48242 11.1475L4.50879 12.0264C4.28613 12.126 3.9668 12.1758 3.55078 12.1758C2.4082 12.1758 1.82227 11.3906 1.79297 9.82031V3.36914H0.325195V2.49023H1.79297V0.0644531H2.76855ZM9.65918 12.1758C8.54004 12.1758 7.66406 11.8096 7.03125 11.0771C6.39844 10.3447 6.07617 9.30176 6.06445 7.94824V6.78809C6.06445 5.39355 6.36914 4.30078 6.97852 3.50977C7.58789 2.71289 8.42578 2.31445 9.49219 2.31445C10.5234 2.31445 11.3086 2.65137 11.8477 3.3252C12.3926 3.99902 12.6709 5.03027 12.6826 6.41895V7.33301H7.03125V7.86914C7.03125 8.95898 7.2627 9.7998 7.72559 10.3916C8.19434 10.9834 8.85352 11.2793 9.70312 11.2793C10.6406 11.2793 11.3994 10.9365 11.9795 10.251L12.4893 10.9014C11.8682 11.751 10.9248 12.1758 9.65918 12.1758ZM9.49219 3.22852C8.72461 3.22852 8.13281 3.50098 7.7168 4.0459C7.30664 4.58496 7.08105 5.37598 7.04004 6.41895H11.707V6.16406C11.6602 4.20703 10.9219 3.22852 9.49219 3.22852ZM17.3145 6.33105L19.3975 2.49023H20.5488L17.8506 7.15723L20.6543 12H19.5117L17.3232 8.00098L15.126 12H13.9834L16.7783 7.15723L14.0889 2.49023H15.2314L17.3145 6.33105ZM23.9678 0.0644531V2.49023H25.5938V3.36914H23.9678V9.68848C23.9678 10.21 24.0439 10.5996 24.1963 10.8574C24.3545 11.1094 24.6152 11.2354 24.9785 11.2354C25.1367 11.2354 25.3711 11.2061 25.6816 11.1475L25.708 12.0264C25.4854 12.126 25.166 12.1758 24.75 12.1758C23.6074 12.1758 23.0215 11.3906 22.9922 9.82031V3.36914H21.5244V2.49023H22.9922V0.0644531H23.9678ZM27.1758 6.76172C27.1758 5.39062 27.4863 4.30664 28.1074 3.50977C28.7285 2.71289 29.5752 2.31445 30.6475 2.31445C31.7256 2.31445 32.5723 2.70703 33.1875 3.49219C33.8086 4.27734 34.1221 5.3584 34.1279 6.73535V7.74609C34.1279 9.14062 33.8145 10.2275 33.1875 11.0068C32.5664 11.7861 31.7256 12.1758 30.665 12.1758C29.6045 12.1758 28.7637 11.7949 28.1426 11.0332C27.5215 10.2715 27.1992 9.22266 27.1758 7.88672V6.76172ZM28.1602 7.74609C28.1602 8.8418 28.3799 9.70312 28.8193 10.3301C29.2646 10.957 29.8799 11.2705 30.665 11.2705C31.4678 11.2705 32.0801 10.9688 32.502 10.3652C32.9297 9.76172 33.1465 8.89746 33.1523 7.77246V6.76172C33.1523 5.66602 32.9297 4.80469 32.4844 4.17773C32.0391 3.54492 31.4268 3.22852 30.6475 3.22852C29.8916 3.22852 29.291 3.53613 28.8457 4.15137C28.4004 4.7666 28.1719 5.61328 28.1602 6.69141V7.74609Z" fill="black"/>
</svg>
